<?xml version="1.0" standalone="no"?>
<!DOCTYPE svg PUBLIC "-//W3C//DTD SVG 20010904//EN"
 "http://www.w3.org/TR/2001/REC-SVG-20010904/DTD/svg10.dtd">
<svg version="1.0" xmlns="http://www.w3.org/2000/svg"
 width="200.000000pt" height="200.000000pt" viewBox="0 0 200.000000 200.000000"
 preserveAspectRatio="xMidYMid meet">
<metadata>
Created by potrace 1.16, written by Peter Selinger 2001-2019
</metadata>
<g transform="translate(0.000000,200.000000) scale(0.100000,-0.100000)"
fill="#000000" stroke="none">
<path d="M825 1826 c-311 -73 -532 -275 -631 -576 -26 -79 -28 -97 -29 -250 0
-164 0 -165 36 -267 93 -264 277 -447 535 -532 118 -40 275 -52 401 -31 354
56 637 339 693 693 8 49 11 121 7 192 -17 343 -240 633 -574 745 -89 30 -111
33 -238 36 -96 3 -159 -1 -200 -10z m285 -180 c286 -52 498 -272 540 -564 43
-290 -140 -590 -424 -697 -333 -125 -713 49 -840 386 -143 380 97 801 499 874
91 17 134 17 225 1z"/>
<path d="M859 1311 c-22 -22 -29 -39 -29 -67 0 -33 10 -47 102 -141 l102 -103
-70 -73 c-115 -118 -134 -144 -134 -182 0 -52 37 -90 89 -90 40 0 47 6 191
150 148 147 150 150 150 193 0 43 -3 47 -132 179 -73 74 -145 141 -160 149
-42 22 -76 17 -109 -15z"/>
</g>
</svg>
